<svg width="381" height="34" viewBox="0 0 381 34" fill="none" xmlns="http://www.w3.org/2000/svg">
<g filter="url(#filter0_n_972_271)">
<path d="M16.704 33.4559C16.288 33.4559 15.968 33.1999 15.744 32.6879C15.52 32.2079 15.232 31.5679 14.88 30.7679C14.56 29.9679 14.288 29.2159 14.064 28.5119L4.608 6.23989C4.288 5.47189 3.856 4.79989 3.312 4.22389C2.8 3.61589 2.08 3.19989 1.152 2.97589C0.832 2.84789 0.56 2.71989 0.336 2.59189C0.112 2.46389 0 2.23989 0 1.91989C0 1.69589 0.096 1.53589 0.288 1.43989C0.512 1.31189 0.752 1.24789 1.008 1.24789C1.648 1.24789 2.384 1.26389 3.216 1.29589C4.08 1.32789 4.944 1.35989 5.808 1.39189C6.672 1.42389 7.408 1.43989 8.016 1.43989C8.656 1.43989 9.44 1.42389 10.368 1.39189C11.296 1.32789 12.224 1.29589 13.152 1.29589C14.08 1.26389 14.864 1.24789 15.504 1.24789C15.792 1.24789 16.08 1.31189 16.368 1.43989C16.656 1.53589 16.8 1.69589 16.8 1.91989C16.8 2.17589 16.656 2.39989 16.368 2.59189C16.08 2.75189 15.76 2.86389 15.408 2.92789C14.48 3.15189 13.792 3.39189 13.344 3.64789C12.896 3.90389 12.672 4.30389 12.672 4.84789C12.672 5.07189 12.704 5.31189 12.768 5.56789C12.832 5.79189 12.88 5.99989 12.912 6.19189L19.104 23.5679C19.168 23.7599 19.232 23.8719 19.296 23.9039C19.392 23.9359 19.488 23.8079 19.584 23.5199L25.2 8.78389C25.84 7.15189 25.968 5.82389 25.584 4.79989C25.2 3.77589 24.304 3.16789 22.896 2.97589C22.544 2.91189 22.208 2.79989 21.888 2.63989C21.568 2.44789 21.408 2.20789 21.408 1.91989C21.408 1.69589 21.552 1.53589 21.84 1.43989C22.16 1.34389 22.48 1.29589 22.8 1.29589C23.472 1.29589 24.032 1.31189 24.48 1.34389C24.928 1.34389 25.36 1.35989 25.776 1.39189C26.224 1.39189 26.768 1.39189 27.408 1.39189C28.336 1.39189 29.216 1.35989 30.048 1.29589C30.88 1.19989 31.76 1.15189 32.688 1.15189C33.04 1.15189 33.36 1.19989 33.648 1.29589C33.968 1.39189 34.128 1.59989 34.128 1.91989C34.128 2.20789 33.984 2.41589 33.696 2.54389C33.44 2.63989 33.152 2.75189 32.832 2.87989C31.808 3.13589 30.976 3.63189 30.336 4.36789C29.728 5.07189 29.136 6.12789 28.56 7.53589L21.264 25.0079C20.752 26.1919 20.288 27.2319 19.872 28.1279C19.488 29.0239 19.136 29.8399 18.816 30.5759C18.496 31.3119 18.16 32.0159 17.808 32.6879C17.712 32.9759 17.584 33.1679 17.424 33.2639C17.264 33.3919 17.024 33.4559 16.704 33.4559ZM35.6186 32.7839C35.3626 32.7839 35.1386 32.7359 34.9466 32.6399C34.7546 32.5119 34.6586 32.3359 34.6586 32.1119C34.6586 31.5999 34.9946 31.2639 35.6666 31.1039C36.8826 30.8479 37.7306 30.5279 38.2106 30.1439C38.6906 29.7279 38.9306 29.0079 38.9306 27.9839V6.19189C38.9306 5.16789 38.7226 4.44789 38.3066 4.03189C37.8906 3.58389 37.0426 3.21589 35.7626 2.92789C35.0906 2.76789 34.7546 2.43189 34.7546 1.91989C34.7546 1.69589 34.8506 1.51989 35.0426 1.39189C35.2346 1.26389 35.4586 1.19989 35.7146 1.19989C36.4506 1.19989 37.2186 1.21589 38.0186 1.24789C38.8506 1.27989 39.6506 1.32789 40.4186 1.39189C41.2186 1.42389 41.9546 1.43989 42.6266 1.43989C43.2666 1.43989 43.9866 1.42389 44.7866 1.39189C45.6186 1.35989 46.4506 1.32789 47.2826 1.29589C48.1466 1.26389 48.9306 1.24789 49.6346 1.24789C49.9226 1.24789 50.1466 1.31189 50.3066 1.43989C50.4666 1.53589 50.5466 1.69589 50.5466 1.91989C50.5466 2.23989 50.4506 2.46389 50.2586 2.59189C50.0986 2.71989 49.8426 2.83189 49.4906 2.92789C48.2106 3.27989 47.3626 3.67989 46.9466 4.12789C46.5306 4.54389 46.3226 5.24789 46.3226 6.23989V27.9359C46.3226 28.8639 46.5466 29.5519 46.9946 29.9999C47.4746 30.4159 48.3386 30.7839 49.5866 31.1039C49.9066 31.1999 50.1466 31.3119 50.3066 31.4399C50.4986 31.5679 50.5946 31.7759 50.5946 32.0639C50.5946 32.2879 50.5146 32.4639 50.3546 32.5919C50.2266 32.7199 50.0186 32.7839 49.7306 32.7839C49.0266 32.7839 48.2426 32.7519 47.3786 32.6879C46.5146 32.6559 45.6666 32.6239 44.8346 32.5919C44.0026 32.5599 43.2666 32.5439 42.6266 32.5439C41.9546 32.5439 41.2186 32.5599 40.4186 32.5919C39.6186 32.6239 38.8026 32.6559 37.9706 32.6879C37.1386 32.7519 36.3546 32.7839 35.6186 32.7839ZM84.015 33.5519C83.599 33.5519 82.927 33.2959 81.999 32.7839C81.071 32.3039 80.111 31.4399 79.119 30.1919C78.351 29.3919 77.551 28.5279 76.719 27.5999C75.887 26.6719 75.007 25.7119 74.079 24.7199C73.151 23.7279 72.207 22.7199 71.247 21.6959C70.319 20.6719 69.391 19.6639 68.463 18.6719C67.535 17.6479 66.607 16.6399 65.679 15.6479C64.751 14.6559 63.871 13.6959 63.039 12.7679C62.207 11.8399 61.407 10.9759 60.639 10.1759C60.575 10.0479 60.463 9.93589 60.303 9.83989C60.175 9.71189 60.079 9.64789 60.015 9.64789C59.887 9.64789 59.791 9.75989 59.727 9.98389C59.695 10.2079 59.679 10.3999 59.679 10.5599C59.647 12.0319 59.647 13.7599 59.679 15.7439C59.711 17.7279 59.743 19.7439 59.775 21.7919C59.839 23.8079 59.871 25.6479 59.871 27.3119C59.871 28.3359 60.191 29.1519 60.831 29.7599C61.471 30.3359 62.415 30.7839 63.663 31.1039C64.015 31.1679 64.319 31.2799 64.575 31.4399C64.863 31.5679 65.007 31.7759 65.007 32.0639C65.007 32.2879 64.879 32.4639 64.623 32.5919C64.367 32.7199 64.095 32.7839 63.807 32.7839C62.943 32.7839 62.239 32.7519 61.695 32.6879C61.151 32.6559 60.639 32.6399 60.159 32.6399C59.711 32.6079 59.151 32.5919 58.479 32.5919C57.775 32.5919 57.103 32.6079 56.463 32.6399C55.855 32.6719 55.327 32.7039 54.879 32.7359C54.463 32.7679 54.175 32.7839 54.015 32.7839C53.791 32.7839 53.535 32.7359 53.247 32.6399C52.991 32.5119 52.863 32.3359 52.863 32.1119C52.863 31.8239 52.991 31.6159 53.247 31.4879C53.503 31.3599 53.791 31.2319 54.111 31.1039C54.879 30.8159 55.455 30.3359 55.839 29.6639C56.255 28.9919 56.495 28.1599 56.559 27.1679C56.687 25.9839 56.815 24.4159 56.943 22.4639C57.103 20.5119 57.247 18.3199 57.375 15.8879C57.503 13.4239 57.567 10.8799 57.567 8.25589C57.567 6.59189 57.135 5.39189 56.271 4.65589C55.439 3.91989 54.415 3.32789 53.199 2.87989C52.943 2.81589 52.655 2.70389 52.335 2.54389C52.015 2.35189 51.855 2.11189 51.855 1.82389C51.855 1.53589 51.983 1.34389 52.239 1.24789C52.495 1.11989 52.783 1.05589 53.103 1.05589C53.679 1.05589 54.319 1.07189 55.023 1.10389C55.759 1.13589 56.527 1.16789 57.327 1.19989C58.127 1.19989 58.959 1.21589 59.823 1.24789C60.687 1.27989 61.551 1.29589 62.415 1.29589C62.671 1.29589 62.863 1.34389 62.991 1.43989C63.151 1.53589 63.295 1.66389 63.423 1.82389C64.127 2.62389 64.879 3.48789 65.679 4.41589C66.511 5.34389 67.375 6.31989 68.271 7.34389C69.167 8.33589 70.079 9.35989 71.007 10.4159C71.935 11.4399 72.847 12.4799 73.743 13.5359C74.671 14.5919 75.567 15.6159 76.431 16.6079C77.327 17.5999 78.191 18.5599 79.023 19.4879C79.855 20.4159 80.623 21.2799 81.327 22.0799C81.423 22.2079 81.535 22.3519 81.663 22.5119C81.823 22.6399 81.967 22.7039 82.095 22.7039C82.351 22.7039 82.479 22.4639 82.479 21.9839C82.479 20.9919 82.479 19.8399 82.479 18.5279C82.511 17.2159 82.527 15.8239 82.527 14.3519C82.527 12.8799 82.511 11.4239 82.479 9.98389C82.479 8.54389 82.447 7.21589 82.383 5.99989C82.351 5.13589 82.015 4.49589 81.375 4.07989C80.767 3.63189 79.919 3.26389 78.831 2.97589C78.479 2.91189 78.175 2.79989 77.919 2.63989C77.663 2.47989 77.535 2.25589 77.535 1.96789C77.535 1.74389 77.663 1.58389 77.919 1.48789C78.175 1.35989 78.447 1.29589 78.735 1.29589C79.471 1.29589 80.095 1.31189 80.607 1.34389C81.119 1.34389 81.583 1.34389 81.999 1.34389C82.415 1.34389 82.879 1.34389 83.391 1.34389C84.031 1.34389 84.575 1.34389 85.023 1.34389C85.471 1.31189 85.951 1.27989 86.463 1.24789C87.007 1.21589 87.695 1.19989 88.527 1.19989C88.911 1.19989 89.199 1.26389 89.391 1.39189C89.615 1.51989 89.727 1.69589 89.727 1.91989C89.727 2.39989 89.311 2.71989 88.479 2.87989C87.359 3.10389 86.559 3.42389 86.079 3.83989C85.599 4.25589 85.343 4.92789 85.311 5.85589C85.311 7.00789 85.295 8.23989 85.263 9.55189C85.263 10.8639 85.231 12.2079 85.167 13.5839C85.103 14.9599 85.039 16.3359 84.975 17.7119C84.943 19.0559 84.911 20.3519 84.879 21.5999C84.847 22.8479 84.831 23.9999 84.831 25.0559C84.831 25.7919 84.879 26.6079 84.975 27.5039C85.071 28.3679 85.151 29.1679 85.215 29.9039C85.311 30.6079 85.359 31.1039 85.359 31.3919C85.359 32.1919 85.231 32.7519 84.975 33.0719C84.751 33.3919 84.431 33.5519 84.015 33.5519ZM99.4515 32.9279C99.0355 32.9279 98.6995 32.8479 98.4435 32.6879C98.1875 32.5599 98.0595 32.3839 98.0595 32.1599C98.0595 31.8719 98.2035 31.6479 98.4915 31.4879C98.7795 31.3279 99.1155 31.2159 99.4995 31.1519C100.716 30.8959 101.564 30.4639 102.044 29.8559C102.524 29.2159 102.764 28.3839 102.764 27.3599V20.7359C102.764 19.6159 102.604 18.6879 102.284 17.9519C101.996 17.2159 101.66 16.5279 101.276 15.8879L95.0835 6.33589C94.8275 5.88789 94.5235 5.43989 94.1715 4.99189C93.8195 4.54389 93.4035 4.14389 92.9235 3.79189C92.4755 3.40789 91.9475 3.13589 91.3395 2.97589C91.0195 2.84789 90.7475 2.71989 90.5235 2.59189C90.2995 2.46389 90.1875 2.23989 90.1875 1.91989C90.1875 1.69589 90.2835 1.53589 90.4755 1.43989C90.6995 1.31189 90.9395 1.24789 91.1955 1.24789C92.5395 1.24789 93.8195 1.29589 95.0355 1.39189C96.2835 1.48789 97.5955 1.53589 98.9715 1.53589C100.028 1.53589 101.02 1.48789 101.948 1.39189C102.908 1.29589 103.916 1.24789 104.972 1.24789C105.26 1.24789 105.548 1.31189 105.836 1.43989C106.124 1.53589 106.268 1.69589 106.268 1.91989C106.268 2.17589 106.124 2.39989 105.836 2.59189C105.548 2.75189 105.228 2.86389 104.876 2.92789C104.012 3.15189 103.388 3.39189 103.004 3.64789C102.62 3.87189 102.428 4.23989 102.428 4.75189C102.428 5.23189 102.604 5.79189 102.956 6.43189L107.9 14.9279C108.188 15.5039 108.476 15.7919 108.764 15.7919C108.892 15.7919 109.02 15.7279 109.148 15.5999C109.308 15.4399 109.468 15.2159 109.628 14.9279C110.396 13.6159 111.116 12.3199 111.788 11.0399C112.492 9.72789 113.18 8.33589 113.852 6.86389C114.012 6.54389 114.14 6.20789 114.236 5.85589C114.364 5.50389 114.427 5.18389 114.427 4.89589C114.427 4.28789 114.14 3.82389 113.564 3.50389C113.02 3.18389 112.444 3.00789 111.836 2.97589C111.516 2.91189 111.18 2.79989 110.828 2.63989C110.508 2.44789 110.348 2.20789 110.348 1.91989C110.348 1.69589 110.492 1.53589 110.78 1.43989C111.1 1.34389 111.42 1.29589 111.74 1.29589C112.668 1.29589 113.5 1.32789 114.236 1.39189C114.972 1.45589 115.772 1.48789 116.635 1.48789C117.468 1.48789 118.268 1.43989 119.036 1.34389C119.804 1.21589 120.636 1.15189 121.532 1.15189C121.884 1.15189 122.204 1.19989 122.492 1.29589C122.812 1.39189 122.972 1.59989 122.972 1.91989C122.972 2.20789 122.812 2.41589 122.492 2.54389C122.172 2.67189 121.836 2.79989 121.484 2.92789C120.524 3.15189 119.708 3.55189 119.036 4.12789C118.364 4.70389 117.788 5.39189 117.307 6.19189C116.796 7.02389 116.284 7.83989 115.772 8.63989C115.292 9.40789 114.812 10.1759 114.332 10.9439C113.884 11.7119 113.42 12.4799 112.94 13.2479C112.46 14.0159 111.98 14.8159 111.5 15.6479C111.244 16.0959 111.004 16.5599 110.78 17.0399C110.588 17.5199 110.428 18.0159 110.3 18.5279C110.204 19.0399 110.156 19.6319 110.156 20.3039V27.3599C110.156 28.5439 110.396 29.3919 110.876 29.9039C111.356 30.3839 112.22 30.7999 113.468 31.1519C113.852 31.2479 114.172 31.3599 114.427 31.4879C114.715 31.6159 114.859 31.8239 114.859 32.1119C114.859 32.3359 114.732 32.5119 114.476 32.6399C114.252 32.7999 113.964 32.8799 113.612 32.8799C112.908 32.8799 112.124 32.8479 111.26 32.7839C110.396 32.7199 109.532 32.6719 108.668 32.6399C107.836 32.5759 107.1 32.5439 106.46 32.5439C105.788 32.5439 105.052 32.5759 104.252 32.6399C103.452 32.6719 102.636 32.7199 101.804 32.7839C100.972 32.8799 100.188 32.9279 99.4515 32.9279ZM123.61 32.8799C123.29 32.8799 123.034 32.7999 122.842 32.6399C122.682 32.5119 122.602 32.3519 122.602 32.1599C122.602 31.9359 122.698 31.7439 122.89 31.5839C123.082 31.3919 123.322 31.2479 123.61 31.1519C124.698 30.8639 125.466 30.5279 125.914 30.1439C126.394 29.7599 126.634 29.0719 126.634 28.0799V6.09589C126.634 5.39189 126.554 4.84789 126.394 4.46389C126.234 4.07989 125.93 3.77589 125.482 3.55189C125.034 3.32789 124.378 3.11989 123.514 2.92789C122.842 2.76789 122.506 2.43189 122.506 1.91989C122.506 1.69589 122.602 1.51989 122.794 1.39189C122.986 1.26389 123.21 1.19989 123.466 1.19989C124.202 1.19989 124.97 1.21589 125.77 1.24789C126.602 1.27989 127.402 1.32789 128.17 1.39189C128.97 1.42389 129.69 1.43989 130.33 1.43989C131.002 1.43989 131.754 1.42389 132.586 1.39189C133.418 1.35989 134.266 1.32789 135.13 1.29589C136.026 1.26389 136.826 1.24789 137.53 1.24789C137.818 1.24789 138.026 1.31189 138.154 1.43989C138.314 1.53589 138.394 1.69589 138.394 1.91989C138.394 2.23989 138.298 2.46389 138.106 2.59189C137.946 2.71989 137.706 2.83189 137.386 2.92789C136.074 3.27989 135.178 3.66389 134.698 4.07989C134.25 4.46389 134.026 5.13589 134.026 6.09589V27.6959C134.026 28.5919 134.218 29.2319 134.602 29.6159C135.018 29.9999 135.69 30.1919 136.618 30.1919H141.514C142.218 30.1919 142.842 30.0799 143.386 29.8559C143.962 29.5999 144.474 29.2799 144.922 28.8959C145.466 28.3839 145.946 27.8079 146.362 27.1679C146.778 26.4959 147.146 25.8079 147.466 25.1039C147.786 24.4639 148.026 24.0479 148.186 23.8559C148.378 23.6639 148.57 23.5679 148.762 23.5679C149.018 23.5679 149.194 23.6799 149.29 23.9039C149.386 24.1279 149.434 24.3359 149.434 24.5279C149.434 24.5919 149.402 24.7359 149.338 24.9599C149.274 25.1839 149.242 25.3599 149.242 25.4879C149.018 26.4159 148.81 27.2319 148.618 27.9359C148.426 28.6079 148.266 29.2639 148.138 29.9039C148.042 30.5119 147.946 31.1999 147.85 31.9679C147.818 32.1919 147.738 32.3999 147.61 32.5919C147.514 32.7839 147.338 32.8799 147.082 32.8799C146.41 32.8799 145.434 32.8639 144.154 32.8319C142.874 32.7999 141.434 32.7679 139.834 32.7359C138.266 32.7359 136.65 32.7199 134.986 32.6879C133.354 32.6559 131.834 32.6399 130.426 32.6399C129.754 32.6399 128.986 32.6559 128.122 32.6879C127.258 32.7199 126.41 32.7519 125.578 32.7839C124.778 32.8479 124.122 32.8799 123.61 32.8799ZM162.165 32.8799C161.813 32.8799 161.509 32.8159 161.253 32.6879C161.029 32.5919 160.917 32.3999 160.917 32.1119C160.917 31.7919 161.013 31.5679 161.205 31.4399C161.429 31.2799 161.717 31.1519 162.069 31.0559C162.997 30.7999 163.797 30.3999 164.469 29.8559C165.173 29.3119 165.701 28.6399 166.053 27.8399C166.853 26.0479 167.605 24.2879 168.309 22.5599C169.013 20.7999 169.701 19.0719 170.373 17.3759C171.045 15.6479 171.717 13.9039 172.389 12.1439C173.061 10.3519 173.733 8.54389 174.405 6.71989C174.885 5.40789 175.189 4.46389 175.317 3.88789C175.445 3.27989 175.541 2.92789 175.605 2.83189C176.181 2.67189 176.725 2.52789 177.237 2.39989C177.749 2.27189 178.293 2.09589 178.869 1.87189C179.445 1.64789 179.925 1.35989 180.309 1.00789C180.725 0.655891 181.029 0.383891 181.221 0.19189C181.349 0.095891 181.477 0.0478916 181.605 0.0478916C181.733 0.015892 181.861 0.111892 181.989 0.335891C182.085 0.52789 182.165 0.73589 182.229 0.959891C182.325 1.15189 182.405 1.37589 182.469 1.63189C183.141 3.77589 183.829 5.96789 184.533 8.20789C185.237 10.4159 185.941 12.6239 186.645 14.8319C187.381 17.0399 188.101 19.2319 188.805 21.4079C189.509 23.5519 190.197 25.6479 190.869 27.6959C191.061 28.3359 191.349 28.8799 191.733 29.3279C192.149 29.7759 192.613 30.1279 193.125 30.3839C193.637 30.6399 194.213 30.8639 194.853 31.0559C195.205 31.1519 195.477 31.2799 195.669 31.4399C195.893 31.5679 196.005 31.7759 196.005 32.0639C196.005 32.2879 195.909 32.4639 195.717 32.5919C195.525 32.7199 195.301 32.7839 195.045 32.7839C194.405 32.7839 193.605 32.7519 192.645 32.6879C191.717 32.6559 190.773 32.6239 189.813 32.5919C188.853 32.5599 188.005 32.5439 187.269 32.5439C186.661 32.5439 185.909 32.5599 185.013 32.5919C184.149 32.6239 183.269 32.6559 182.373 32.6879C181.477 32.7199 180.709 32.7359 180.069 32.7359C179.781 32.7359 179.525 32.6879 179.301 32.5919C179.109 32.4639 179.013 32.2879 179.013 32.0639C179.013 31.7759 179.125 31.5519 179.349 31.3919C179.573 31.2319 179.845 31.1199 180.165 31.0559C181.349 30.7999 182.213 30.4639 182.757 30.0479C183.301 29.6319 183.477 29.0079 183.285 28.1759C183.157 27.5679 182.997 26.9279 182.805 26.2559C182.613 25.5839 182.421 24.9119 182.229 24.2399C182.069 23.5359 181.893 22.8639 181.701 22.2239C181.637 21.9679 181.557 21.7759 181.461 21.6479C181.365 21.5199 181.173 21.4559 180.885 21.4559H172.389C172.165 21.4559 171.989 21.5199 171.861 21.6479C171.733 21.7759 171.637 21.9839 171.573 22.2719C171.445 22.7199 171.301 23.1679 171.141 23.6159C170.981 24.0639 170.821 24.5119 170.661 24.9599C170.533 25.4079 170.405 25.8559 170.277 26.3039C170.149 26.7519 170.021 27.1839 169.893 27.5999C169.669 28.5599 169.765 29.2959 170.181 29.8079C170.597 30.3199 171.493 30.7359 172.869 31.0559C173.637 31.2159 174.021 31.5519 174.021 32.0639C174.021 32.2879 173.925 32.4639 173.733 32.5919C173.573 32.6879 173.301 32.7359 172.917 32.7359C171.989 32.7359 171.125 32.7039 170.325 32.6399C169.525 32.6079 168.645 32.5919 167.685 32.5919C166.725 32.5919 165.813 32.6399 164.949 32.7359C164.085 32.8319 163.157 32.8799 162.165 32.8799ZM173.733 18.8639H179.973C180.453 18.8639 180.693 18.7519 180.693 18.5279C180.693 18.4319 180.677 18.3519 180.645 18.2879C180.645 18.2239 180.629 18.1439 180.597 18.0479L177.381 7.19989C177.285 6.84789 177.189 6.67189 177.093 6.67189C177.029 6.67189 176.917 6.84789 176.757 7.19989L172.965 18.0479C172.901 18.1759 172.869 18.3039 172.869 18.4319C172.869 18.5919 172.949 18.7039 173.109 18.7679C173.301 18.8319 173.509 18.8639 173.733 18.8639ZM226.007 33.6479C224.375 33.6479 222.999 33.4399 221.879 33.0239C220.759 32.6399 219.799 32.1279 218.999 31.4879C218.231 30.8159 217.543 30.0639 216.935 29.2319C216.231 28.3039 215.543 27.3759 214.871 26.4479C214.231 25.5199 213.591 24.5119 212.951 23.4239C212.311 22.3359 211.639 21.0879 210.935 19.6799C210.615 18.9759 210.183 18.4799 209.639 18.1919C209.351 17.9999 209.063 17.8719 208.775 17.8079C208.487 17.7439 208.231 17.7119 208.007 17.7119C207.847 17.7119 207.719 17.8079 207.623 17.9999C207.527 18.1599 207.479 18.3839 207.479 18.6719V27.8399C207.479 28.8319 207.751 29.5519 208.295 29.9999C208.839 30.4479 209.783 30.8159 211.127 31.1039C211.479 31.1679 211.735 31.2799 211.895 31.4399C212.087 31.5679 212.183 31.7759 212.183 32.0639C212.183 32.2879 212.103 32.4639 211.943 32.5919C211.783 32.7199 211.559 32.7839 211.271 32.7839C210.567 32.7839 209.751 32.7519 208.823 32.6879C207.927 32.6559 207.031 32.6239 206.135 32.5919C205.239 32.5599 204.471 32.5439 203.831 32.5439C203.159 32.5439 202.423 32.5599 201.623 32.5919C200.823 32.6239 199.991 32.6559 199.127 32.6879C198.295 32.7519 197.527 32.7839 196.823 32.7839C196.567 32.7839 196.343 32.7359 196.151 32.6399C195.959 32.5119 195.863 32.3359 195.863 32.1119C195.863 31.5999 196.199 31.2639 196.871 31.1039C198.087 30.8479 198.919 30.5279 199.367 30.1439C199.847 29.7279 200.087 28.9919 200.087 27.9359V6.38389C200.087 5.61589 200.007 5.00789 199.847 4.55989C199.719 4.11189 199.447 3.77589 199.031 3.55189C198.615 3.29589 198.007 3.08789 197.207 2.92789C196.791 2.83189 196.503 2.70389 196.343 2.54389C196.183 2.35189 196.103 2.14389 196.103 1.91989C196.103 1.72789 196.199 1.56789 196.391 1.43989C196.583 1.27989 196.839 1.19989 197.159 1.19989C198.183 1.19989 199.015 1.23189 199.655 1.29589C200.327 1.35989 200.951 1.42389 201.527 1.48789C202.135 1.51989 202.839 1.53589 203.639 1.53589C204.375 1.53589 205.015 1.50389 205.559 1.43989C206.135 1.34389 206.775 1.26389 207.479 1.19989C208.215 1.13589 209.143 1.10389 210.263 1.10389C214.007 1.10389 216.887 1.74389 218.903 3.02389C220.919 4.30389 221.927 6.23989 221.927 8.83189C221.927 10.2719 221.607 11.4879 220.967 12.4799C220.359 13.4399 219.575 14.2399 218.615 14.8799C217.687 15.4879 216.743 15.9519 215.783 16.2719C215.655 16.3039 215.591 16.3839 215.591 16.5119C215.623 16.6079 215.671 16.7199 215.735 16.8479C216.695 18.2559 217.623 19.6319 218.519 20.9759C219.447 22.2879 220.391 23.5199 221.351 24.6719C222.311 25.7919 223.303 26.8319 224.327 27.7919C225.415 28.8159 226.519 29.4239 227.639 29.6159C228.791 29.7759 229.927 29.8559 231.047 29.8559C231.527 29.8559 231.767 30.1439 231.767 30.7199C231.767 31.4239 231.511 31.9999 230.999 32.4479C230.519 32.8639 229.847 33.1679 228.983 33.3599C228.119 33.5519 227.127 33.6479 226.007 33.6479ZM209.303 16.1759C210.519 16.1759 211.527 15.9039 212.327 15.3599C213.127 14.8159 213.735 14.0799 214.151 13.1519C214.567 12.1919 214.775 11.1039 214.775 9.88789C214.775 8.41589 214.583 7.18389 214.199 6.19189C213.815 5.19989 213.239 4.46389 212.471 3.98389C211.703 3.47189 210.711 3.21589 209.495 3.21589C208.791 3.21589 208.279 3.50389 207.959 4.07989C207.671 4.62389 207.527 5.80789 207.527 7.63189C207.495 8.36789 207.479 9.29589 207.479 10.4159C207.479 11.5359 207.479 12.8639 207.479 14.3999C207.479 15.0399 207.639 15.5039 207.959 15.7919C208.311 16.0479 208.759 16.1759 209.303 16.1759ZM249.596 33.3119C247.1 33.3119 244.764 32.9439 242.588 32.2079C240.412 31.4399 238.492 30.3679 236.828 28.9919C235.164 27.5839 233.868 25.9039 232.94 23.9519C232.012 21.9999 231.548 19.8399 231.548 17.4719C231.548 15.2639 231.98 13.1679 232.844 11.1839C233.74 9.16789 235.036 7.39189 236.732 5.85589C238.428 4.28789 240.46 3.05589 242.828 2.15989C245.228 1.23189 247.932 0.767891 250.94 0.767891C251.964 0.767891 252.988 0.847891 254.012 1.00789C255.068 1.13589 256.076 1.32789 257.036 1.58389C258.028 1.83989 258.924 2.11189 259.724 2.39989C260.012 2.52789 260.252 2.70389 260.444 2.92789C260.668 3.11989 260.796 3.40789 260.828 3.79189C260.956 4.84789 261.052 5.87189 261.116 6.86389C261.18 7.85589 261.212 8.75189 261.212 9.55189C261.212 9.90389 261.084 10.1439 260.828 10.2719C260.572 10.3999 260.284 10.4159 259.964 10.3199C259.676 10.1919 259.468 9.93589 259.34 9.55189C259.116 8.81589 258.844 8.07989 258.524 7.34389C258.236 6.60789 257.788 5.96789 257.18 5.42389C256.54 4.78389 255.644 4.25589 254.492 3.83989C253.372 3.42389 252.012 3.21589 250.412 3.21589C248.78 3.21589 247.292 3.56789 245.948 4.27189C244.636 4.97589 243.5 5.93589 242.54 7.15189C241.612 8.36789 240.892 9.74389 240.38 11.2799C239.868 12.8159 239.612 14.4159 239.612 16.0799C239.612 18.1919 239.836 20.1599 240.284 21.9839C240.732 23.7759 241.42 25.3279 242.348 26.6399C243.276 27.9519 244.412 28.9759 245.756 29.7119C247.1 30.4479 248.684 30.8159 250.508 30.8159C252.876 30.8159 254.796 30.3199 256.268 29.3279C257.74 28.3039 258.972 26.7519 259.964 24.6719C260.22 24.0959 260.572 23.8239 261.02 23.8559C261.5 23.8879 261.74 24.1599 261.74 24.6719C261.74 25.0879 261.692 25.5999 261.596 26.2079C261.532 26.7839 261.42 27.4079 261.26 28.0799C261.1 28.7519 260.908 29.4399 260.684 30.1439C260.556 30.5279 260.38 30.8319 260.156 31.0559C259.964 31.2479 259.708 31.4239 259.388 31.5839C258.172 32.0959 256.732 32.5119 255.068 32.8319C253.404 33.1519 251.58 33.3119 249.596 33.3119ZM266.06 32.7839C265.836 32.7839 265.612 32.7359 265.388 32.6399C265.196 32.5119 265.1 32.3359 265.1 32.1119C265.1 31.5999 265.436 31.2639 266.108 31.1039C267.228 30.8479 267.98 30.5279 268.364 30.1439C268.78 29.7279 268.988 29.0079 268.988 27.9839V6.19189C268.988 5.13589 268.796 4.39989 268.412 3.98389C268.06 3.56789 267.324 3.21589 266.204 2.92789C265.5 2.76789 265.148 2.43189 265.148 1.91989C265.148 1.69589 265.244 1.51989 265.436 1.39189C265.66 1.26389 265.884 1.19989 266.108 1.19989C266.844 1.19989 267.596 1.21589 268.364 1.24789C269.132 1.27989 269.884 1.32789 270.62 1.39189C271.356 1.42389 272.044 1.43989 272.684 1.43989C273.324 1.43989 274.044 1.42389 274.844 1.39189C275.676 1.35989 276.508 1.32789 277.34 1.29589C278.204 1.26389 278.988 1.24789 279.692 1.24789C280.268 1.24789 280.556 1.48789 280.556 1.96789C280.556 2.25589 280.46 2.46389 280.268 2.59189C280.108 2.71989 279.868 2.83189 279.548 2.92789C278.268 3.27989 277.42 3.67989 277.004 4.12789C276.588 4.57589 276.38 5.27989 276.38 6.23989V14.8799C276.38 15.1359 276.444 15.3119 276.572 15.4079C276.732 15.5039 276.924 15.5519 277.148 15.5519H289.82C290.236 15.5519 290.444 15.3279 290.444 14.8799V6.23989C290.444 5.27989 290.236 4.57589 289.82 4.12789C289.436 3.67989 288.604 3.27989 287.324 2.92789C286.972 2.83189 286.7 2.71989 286.508 2.59189C286.348 2.46389 286.268 2.25589 286.268 1.96789C286.268 1.48789 286.572 1.24789 287.18 1.24789C287.884 1.24789 288.668 1.26389 289.531 1.29589C290.396 1.32789 291.244 1.35989 292.076 1.39189C292.908 1.42389 293.644 1.43989 294.284 1.43989C294.892 1.43989 295.548 1.42389 296.252 1.39189C296.988 1.32789 297.724 1.27989 298.46 1.24789C299.228 1.21589 299.98 1.19989 300.716 1.19989C300.972 1.19989 301.196 1.26389 301.388 1.39189C301.58 1.51989 301.676 1.69589 301.676 1.91989C301.676 2.43189 301.34 2.76789 300.668 2.92789C299.516 3.21589 298.748 3.58389 298.364 4.03189C298.012 4.44789 297.836 5.16789 297.836 6.19189V27.9359C297.836 28.9919 298.028 29.7279 298.412 30.1439C298.828 30.5279 299.58 30.8479 300.668 31.1039C301.34 31.2639 301.676 31.5999 301.676 32.1119C301.676 32.3359 301.58 32.5119 301.388 32.6399C301.196 32.7359 300.988 32.7839 300.764 32.7839C300.092 32.7839 299.372 32.7519 298.604 32.6879C297.836 32.6559 297.068 32.6239 296.3 32.5919C295.532 32.5599 294.828 32.5439 294.188 32.5439C293.548 32.5439 292.812 32.5599 291.98 32.5919C291.18 32.6239 290.348 32.6559 289.484 32.6879C288.62 32.7519 287.836 32.7839 287.132 32.7839C286.876 32.7839 286.668 32.7199 286.508 32.5919C286.348 32.4639 286.268 32.2879 286.268 32.0639C286.268 31.7439 286.348 31.5359 286.508 31.4399C286.7 31.3119 286.956 31.1999 287.276 31.1039C288.492 30.7839 289.324 30.4159 289.772 29.9999C290.22 29.5519 290.444 28.8639 290.444 27.9359V18.9599C290.444 18.7039 290.396 18.5119 290.3 18.3839C290.236 18.2239 290.092 18.1439 289.868 18.1439H277.052C276.604 18.1439 276.38 18.3999 276.38 18.9119V27.8879C276.38 28.7839 276.62 29.4719 277.1 29.9519C277.58 30.3999 278.428 30.7839 279.644 31.1039C279.964 31.1999 280.204 31.3119 280.364 31.4399C280.556 31.5359 280.652 31.7439 280.652 32.0639C280.652 32.2879 280.572 32.4639 280.412 32.5919C280.284 32.7199 280.076 32.7839 279.788 32.7839C279.084 32.7839 278.3 32.7519 277.436 32.6879C276.572 32.6559 275.724 32.6239 274.892 32.5919C274.06 32.5599 273.324 32.5439 272.684 32.5439C272.044 32.5439 271.324 32.5599 270.523 32.5919C269.756 32.6239 268.972 32.6559 268.172 32.6879C267.404 32.7519 266.7 32.7839 266.06 32.7839ZM304.353 32.7839C304.097 32.7839 303.873 32.7359 303.681 32.6399C303.489 32.5119 303.393 32.3359 303.393 32.1119C303.393 31.5999 303.729 31.2639 304.401 31.1039C305.617 30.8479 306.465 30.5279 306.945 30.1439C307.425 29.7279 307.665 29.0079 307.665 27.9839V6.19189C307.665 5.16789 307.457 4.44789 307.041 4.03189C306.625 3.58389 305.777 3.21589 304.497 2.92789C303.825 2.76789 303.489 2.43189 303.489 1.91989C303.489 1.69589 303.585 1.51989 303.777 1.39189C303.969 1.26389 304.193 1.19989 304.449 1.19989C305.185 1.19989 305.953 1.21589 306.753 1.24789C307.585 1.27989 308.385 1.32789 309.153 1.39189C309.953 1.42389 310.689 1.43989 311.361 1.43989C312.001 1.43989 312.721 1.42389 313.521 1.39189C314.353 1.35989 315.185 1.32789 316.017 1.29589C316.881 1.26389 317.665 1.24789 318.369 1.24789C318.657 1.24789 318.881 1.31189 319.041 1.43989C319.201 1.53589 319.281 1.69589 319.281 1.91989C319.281 2.23989 319.185 2.46389 318.993 2.59189C318.833 2.71989 318.577 2.83189 318.225 2.92789C316.945 3.27989 316.097 3.67989 315.681 4.12789C315.265 4.54389 315.057 5.24789 315.057 6.23989V27.9359C315.057 28.8639 315.281 29.5519 315.729 29.9999C316.209 30.4159 317.073 30.7839 318.321 31.1039C318.641 31.1999 318.881 31.3119 319.041 31.4399C319.233 31.5679 319.329 31.7759 319.329 32.0639C319.329 32.2879 319.249 32.4639 319.089 32.5919C318.961 32.7199 318.753 32.7839 318.465 32.7839C317.761 32.7839 316.977 32.7519 316.113 32.6879C315.249 32.6559 314.401 32.6239 313.569 32.5919C312.737 32.5599 312.001 32.5439 311.361 32.5439C310.689 32.5439 309.953 32.5599 309.153 32.5919C308.353 32.6239 307.537 32.6559 306.705 32.6879C305.873 32.7519 305.089 32.7839 304.353 32.7839ZM336.813 33.4559C336.397 33.4559 336.077 33.1999 335.853 32.6879C335.629 32.2079 335.341 31.5679 334.989 30.7679C334.669 29.9679 334.397 29.2159 334.173 28.5119L324.717 6.23989C324.397 5.47189 323.965 4.79989 323.421 4.22389C322.909 3.61589 322.189 3.19989 321.261 2.97589C320.941 2.84789 320.669 2.71989 320.445 2.59189C320.221 2.46389 320.109 2.23989 320.109 1.91989C320.109 1.69589 320.205 1.53589 320.397 1.43989C320.621 1.31189 320.861 1.24789 321.117 1.24789C321.757 1.24789 322.493 1.26389 323.325 1.29589C324.189 1.32789 325.053 1.35989 325.917 1.39189C326.781 1.42389 327.517 1.43989 328.125 1.43989C328.765 1.43989 329.549 1.42389 330.477 1.39189C331.405 1.32789 332.333 1.29589 333.261 1.29589C334.189 1.26389 334.973 1.24789 335.613 1.24789C335.901 1.24789 336.189 1.31189 336.477 1.43989C336.765 1.53589 336.909 1.69589 336.909 1.91989C336.909 2.17589 336.765 2.39989 336.477 2.59189C336.189 2.75189 335.869 2.86389 335.517 2.92789C334.589 3.15189 333.901 3.39189 333.453 3.64789C333.005 3.90389 332.781 4.30389 332.781 4.84789C332.781 5.07189 332.813 5.31189 332.877 5.56789C332.941 5.79189 332.989 5.99989 333.021 6.19189L339.213 23.5679C339.277 23.7599 339.341 23.8719 339.405 23.9039C339.501 23.9359 339.597 23.8079 339.693 23.5199L345.309 8.78389C345.949 7.15189 346.077 5.82389 345.693 4.79989C345.309 3.77589 344.413 3.16789 343.005 2.97589C342.653 2.91189 342.317 2.79989 341.997 2.63989C341.677 2.44789 341.517 2.20789 341.517 1.91989C341.517 1.69589 341.661 1.53589 341.949 1.43989C342.269 1.34389 342.589 1.29589 342.909 1.29589C343.581 1.29589 344.141 1.31189 344.589 1.34389C345.037 1.34389 345.469 1.35989 345.885 1.39189C346.333 1.39189 346.877 1.39189 347.517 1.39189C348.445 1.39189 349.325 1.35989 350.157 1.29589C350.989 1.19989 351.869 1.15189 352.797 1.15189C353.149 1.15189 353.469 1.19989 353.757 1.29589C354.077 1.39189 354.237 1.59989 354.237 1.91989C354.237 2.20789 354.093 2.41589 353.805 2.54389C353.549 2.63989 353.261 2.75189 352.941 2.87989C351.917 3.13589 351.085 3.63189 350.445 4.36789C349.837 5.07189 349.245 6.12789 348.669 7.53589L341.373 25.0079C340.861 26.1919 340.397 27.2319 339.981 28.1279C339.597 29.0239 339.245 29.8399 338.925 30.5759C338.605 31.3119 338.269 32.0159 337.917 32.6879C337.821 32.9759 337.693 33.1679 337.533 33.2639C337.373 33.3919 337.133 33.4559 336.813 33.4559ZM355.968 32.8799C355.648 32.8799 355.392 32.7999 355.2 32.6399C355.04 32.5119 354.96 32.3519 354.96 32.1599C354.96 31.6799 355.312 31.3439 356.016 31.1519C357.104 30.8639 357.872 30.5279 358.32 30.1439C358.8 29.7599 359.04 29.0559 359.04 28.0319V6.19189C359.04 5.16789 358.832 4.43189 358.416 3.98389C358 3.53589 357.216 3.18389 356.064 2.92789C355.648 2.83189 355.36 2.70389 355.2 2.54389C355.04 2.35189 354.96 2.14389 354.96 1.91989C354.96 1.72789 355.056 1.56789 355.248 1.43989C355.44 1.27989 355.696 1.19989 356.016 1.19989C356.816 1.19989 357.632 1.21589 358.464 1.24789C359.296 1.27989 360.112 1.32789 360.912 1.39189C361.712 1.42389 362.48 1.43989 363.216 1.43989C364.88 1.43989 366.656 1.42389 368.544 1.39189C370.432 1.35989 372.112 1.32789 373.584 1.29589C374.608 1.29589 375.456 1.24789 376.128 1.15189C376.8 1.02389 377.2 0.959891 377.328 0.959891C377.552 0.959891 377.792 1.03989 378.048 1.19989C378.336 1.32789 378.496 1.55189 378.528 1.87189C378.656 3.02389 378.816 4.14389 379.008 5.23189C379.2 6.31989 379.296 7.27989 379.296 8.11189C379.296 8.39989 379.232 8.62389 379.104 8.78389C378.976 8.94389 378.832 9.02389 378.672 9.02389C378.512 9.02389 378.336 8.95989 378.144 8.83189C377.984 8.70389 377.856 8.51189 377.76 8.25589C377.44 7.45589 377.152 6.76789 376.896 6.19189C376.64 5.61589 376.352 5.15189 376.032 4.79989C375.648 4.44789 375.184 4.11189 374.64 3.79189C374.096 3.47189 373.408 3.31189 372.576 3.31189H368.976C368.272 3.31189 367.664 3.50389 367.152 3.88789C366.64 4.23989 366.384 4.75189 366.384 5.42389V14.4959C366.384 14.8799 366.496 15.1679 366.72 15.3599C366.944 15.5519 367.232 15.6479 367.584 15.6479H371.808C372.64 15.6479 373.232 15.3759 373.584 14.8319C373.968 14.2559 374.304 13.5679 374.592 12.7679C374.816 12.1599 375.136 11.8559 375.552 11.8559C375.712 11.8559 375.856 11.9519 375.984 12.1439C376.112 12.3039 376.16 12.5599 376.128 12.9119C376.096 13.2959 376.064 13.7119 376.032 14.1599C376 14.6079 375.968 15.0559 375.936 15.5039C375.936 15.9519 375.936 16.3839 375.936 16.7999C375.936 17.1839 375.936 17.5999 375.936 18.0479C375.968 18.4959 375.984 18.9439 375.984 19.3919C376.016 19.8399 376.048 20.2719 376.08 20.6879C376.144 21.1359 376.128 21.4719 376.032 21.6959C375.936 21.8879 375.792 21.9839 375.6 21.9839C375.088 21.9839 374.72 21.5679 374.496 20.7359C374.208 19.7759 373.888 19.0399 373.536 18.5279C373.184 18.0159 372.688 17.7599 372.048 17.7599H367.584C367.2 17.7599 366.896 17.8559 366.672 18.0479C366.48 18.2079 366.384 18.4799 366.384 18.8639V27.9839C366.384 28.9439 366.592 29.6159 367.008 29.9999C367.424 30.3839 368.064 30.5759 368.928 30.5759H373.056C373.76 30.5759 374.432 30.4959 375.072 30.3359C375.712 30.1759 376.256 29.9039 376.704 29.5199C377.248 29.0719 377.744 28.5119 378.192 27.8399C378.64 27.1679 379.056 26.4479 379.44 25.6799C379.568 25.4559 379.696 25.3119 379.824 25.2479C379.984 25.1519 380.16 25.1039 380.352 25.1039C380.512 25.1039 380.624 25.1999 380.688 25.3919C380.784 25.5839 380.832 25.7919 380.832 26.0159C380.832 26.5599 380.752 27.1679 380.592 27.8399C380.432 28.5119 380.224 29.2319 379.968 29.9999C379.744 30.7359 379.52 31.4719 379.296 32.2079C379.232 32.4319 379.088 32.5919 378.864 32.6879C378.672 32.7839 378.464 32.8319 378.24 32.8319C377.824 32.8319 377.04 32.8159 375.888 32.7839C374.768 32.7839 373.44 32.7679 371.904 32.7359C370.368 32.7039 368.784 32.6719 367.152 32.6399C365.52 32.6399 364 32.6399 362.592 32.6399C361.952 32.6399 361.248 32.6559 360.48 32.6879C359.712 32.7199 358.928 32.7519 358.128 32.7839C357.36 32.8479 356.64 32.8799 355.968 32.8799Z" fill="url(#paint0_linear_972_271)"/>
</g>
<defs>
<filter id="filter0_n_972_271" x="0" y="0" width="380.832" height="33.6479" filterUnits="userSpaceOnUse" color-interpolation-filters="sRGB">
<feFlood flood-opacity="0" result="BackgroundImageFix"/>
<feBlend mode="normal" in="SourceGraphic" in2="BackgroundImageFix" result="shape"/>
<feTurbulence type="fractalNoise" baseFrequency="2 2" stitchTiles="stitch" numOctaves="3" result="noise" seed="2073" />
<feColorMatrix in="noise" type="luminanceToAlpha" result="alphaNoise" />
<feComponentTransfer in="alphaNoise" result="coloredNoise1">
<feFuncA type="discrete" tableValues="1 1 1 1 1 1 1 1 1 1 1 1 1 1 1 1 1 1 1 1 1 1 1 1 1 1 1 1 1 1 1 1 1 1 1 1 1 1 1 1 1 1 1 1 1 1 1 1 1 1 1 0 0 0 0 0 0 0 0 0 0 0 0 0 0 0 0 0 0 0 0 0 0 0 0 0 0 0 0 0 0 0 0 0 0 0 0 0 0 0 0 0 0 0 0 0 0 0 0 0 "/>
</feComponentTransfer>
<feComposite operator="in" in2="shape" in="coloredNoise1" result="noise1Clipped" />
<feFlood flood-color="rgba(0, 0, 0, 0.5)" result="color1Flood" />
<feComposite operator="in" in2="noise1Clipped" in="color1Flood" result="color1" />
<feMerge result="effect1_noise_972_271">
<feMergeNode in="shape" />
<feMergeNode in="color1" />
</feMerge>
</filter>
<linearGradient id="paint0_linear_972_271" x1="0" y1="17.1399" x2="382" y2="17.1399" gradientUnits="userSpaceOnUse">
<stop stop-color="#EB681B"/>
<stop offset="1" stop-color="#D9B097"/>
</linearGradient>
</defs>
</svg>
